<?xml version="1.0" standalone="no"?>
<!DOCTYPE svg PUBLIC "-//W3C//DTD SVG 20010904//EN"
 "http://www.w3.org/TR/2001/REC-SVG-20010904/DTD/svg10.dtd">
<svg version="1.0" xmlns="http://www.w3.org/2000/svg"
 width="1024.000000pt" height="1024.000000pt" viewBox="0 0 1024.000000 1024.000000"
 preserveAspectRatio="xMidYMid meet">
<metadata>
Created by potrace 1.11, written by Peter Selinger 2001-2013
</metadata>
<g transform="translate(0.000000,1024.000000) scale(0.100000,-0.100000)"
fill="#000000" stroke="none">
<path d="M3683 8949 c-321 -24 -571 -103 -785 -245 -202 -134 -507 -466 -676
-735 -243 -388 -382 -810 -448 -1364 -26 -212 -26 -749 0 -915 89 -588 439
-1390 904 -2075 204 -300 540 -700 943 -1124 351 -371 727 -700 989 -870 448
-290 966 -395 1528 -311 398 60 548 136 874 446 517 493 901 945 1139 1339 39
66 103 166 140 223 79 118 137 234 170 342 20 64 24 94 22 200 -1 133 -4 145
-106 540 -59 229 -64 276 -39 420 34 198 45 331 39 498 -6 180 -12 204 -97
397 -157 355 -393 786 -603 1100 -109 162 -175 249 -347 455 -80 96 -195 236
-255 310 -222 272 -389 455 -545 595 -455 407 -934 631 -1540 719 -349 51
-1005 79 -1307 55z m737 -1960 c252 -36 546 -152 635 -251 62 -70 80 -131 80
-278 -1 -114 -2 -118 -82 -397 -45 -155 -91 -299 -102 -320 -54 -106 -182
-211 -374 -308 -137 -68 -140 -69 -220 -69 -133 -1 -194 38 -230 148 -39 115
-117 199 -309 334 -128 91 -163 128 -208 224 -65 140 -78 341 -30 493 32 103
106 239 163 301 79 87 131 107 330 128 128 14 222 12 347 -5z"/>
</g>
</svg>
