<?xml version="1.0" standalone="no"?>
<!DOCTYPE svg PUBLIC "-//W3C//DTD SVG 20010904//EN"
 "http://www.w3.org/TR/2001/REC-SVG-20010904/DTD/svg10.dtd">
<svg version="1.0" xmlns="http://www.w3.org/2000/svg"
 width="1024.000000pt" height="1024.000000pt" viewBox="0 0 1024.000000 1024.000000"
 preserveAspectRatio="xMidYMid meet">
<metadata>
Created by potrace 1.11, written by Peter Selinger 2001-2013
</metadata>
<g transform="translate(0.000000,1024.000000) scale(0.100000,-0.100000)"
fill="#000000" stroke="none">
<path d="M3741 8950 c-403 -32 -669 -117 -896 -288 -177 -133 -435 -417 -591
-653 -257 -388 -420 -873 -473 -1404 -6 -60 -14 -130 -17 -155 -10 -87 -12
-456 -3 -575 5 -66 16 -168 24 -227 87 -593 526 -1539 1023 -2208 417 -560
1163 -1339 1609 -1678 513 -390 1024 -532 1646 -457 138 16 238 45 345 99 171
87 357 254 512 462 74 98 143 173 280 305 199 190 699 701 903 924 222 241
331 433 373 659 22 115 4 240 -76 536 -89 328 -94 374 -60 567 41 238 49 493
19 633 -16 76 -64 189 -181 430 -266 549 -544 991 -843 1340 -44 52 -155 185
-245 295 -90 110 -209 252 -266 315 -591 667 -1221 980 -2114 1050 -410 33
-786 44 -969 30z m704 -1966 c186 -30 412 -107 541 -186 106 -63 154 -168 154
-332 0 -50 -4 -107 -9 -126 -35 -143 -157 -555 -177 -597 -37 -78 -183 -212
-282 -260 -42 -20 -97 -49 -122 -64 -103 -62 -239 -75 -327 -31 -47 24 -74 59
-93 117 -37 116 -101 188 -280 318 -156 112 -174 128 -216 200 -58 100 -79
184 -79 327 0 151 15 214 85 356 76 154 160 236 271 264 78 20 270 37 359 33
47 -2 126 -11 175 -19z"/>
</g>
</svg>
